<?xml version="1.0" encoding="UTF-8" standalone="no"?>
<!-- Created with Inkscape (http://www.inkscape.org/) -->

<svg
   xmlns:dc="http://purl.org/dc/elements/1.1/"
   xmlns:cc="http://creativecommons.org/ns#"
   xmlns:rdf="http://www.w3.org/1999/02/22-rdf-syntax-ns#"
   xmlns:svg="http://www.w3.org/2000/svg"
   xmlns="http://www.w3.org/2000/svg"
   xmlns:xlink="http://www.w3.org/1999/xlink"
   version="1.1"
   width="692.01843"
   height="569.71039"
   id="svg2">
  <defs
     id="defs4">
    <filter
       color-interpolation-filters="sRGB"
       id="filter4513">
      <feGaussianBlur
         id="feGaussianBlur4515"
         stdDeviation="7.9675264" />
    </filter>
    <filter
       color-interpolation-filters="sRGB"
       id="filter4513-3">
      <feGaussianBlur
         id="feGaussianBlur4515-1"
         stdDeviation="7.9675264" />
    </filter>
    <filter
       color-interpolation-filters="sRGB"
       id="filter4037-8">
      <feGaussianBlur
         id="feGaussianBlur4039-5"
         stdDeviation="2.6208468" />
    </filter>
    <filter
       x="-0.032820266"
       y="-0.34911901"
       width="1.0656404"
       height="1.698238"
       color-interpolation-filters="sRGB"
       id="filter4240-1">
      <feGaussianBlur
         id="feGaussianBlur4242-7"
         stdDeviation="3.3851936" />
    </filter>
    <radialGradient
       cx="-8.1891546"
       cy="648.78528"
       r="122.64422"
       fx="-8.1891546"
       fy="648.78528"
       id="radialGradient3141-2"
       xlink:href="#linearGradient3135-9"
       gradientUnits="userSpaceOnUse"
       gradientTransform="matrix(1.0451294,4.5533305e-8,2.7821896e-6,0.14211887,0.36776788,570.30319)" />
    <linearGradient
       id="linearGradient3135-9">
      <stop
         id="stop3137-4"
         style="stop-color:#4d4d4d;stop-opacity:1"
         offset="0" />
      <stop
         id="stop3139-9"
         style="stop-color:#4d4d4d;stop-opacity:0"
         offset="1" />
    </linearGradient>
    <linearGradient
       x1="122.35275"
       y1="629.7298"
       x2="-39.439716"
       y2="614.93988"
       id="linearGradient3161-6"
       xlink:href="#linearGradient3155-8"
       gradientUnits="userSpaceOnUse" />
    <linearGradient
       id="linearGradient3155-8">
      <stop
         id="stop3157-1"
         style="stop-color:#b3b3b3;stop-opacity:1"
         offset="0" />
      <stop
         id="stop3159-1"
         style="stop-color:#b3b3b3;stop-opacity:0"
         offset="1" />
    </linearGradient>
    <linearGradient
       x1="123.6973"
       y1="613.14716"
       x2="-12.549001"
       y2="642.27875"
       id="linearGradient4214-8"
       xlink:href="#linearGradient4088-9"
       gradientUnits="userSpaceOnUse" />
    <linearGradient
       id="linearGradient4088-9">
      <stop
         id="stop4090-3"
         style="stop-color:#f9f9f9;stop-opacity:1"
         offset="0" />
      <stop
         id="stop4092-4"
         style="stop-color:#f9f9f9;stop-opacity:0"
         offset="1" />
    </linearGradient>
    <linearGradient
       x1="285.93796"
       y1="739.08533"
       x2="-198.9913"
       y2="388.1615"
       id="linearGradient3151-8"
       xlink:href="#linearGradient3145-1"
       gradientUnits="userSpaceOnUse" />
    <linearGradient
       id="linearGradient3145-1">
      <stop
         id="stop3147-9"
         style="stop-color:#ffffff;stop-opacity:1"
         offset="0" />
      <stop
         id="stop3149-7"
         style="stop-color:#ffffff;stop-opacity:0"
         offset="1" />
    </linearGradient>
    <radialGradient
       cx="12.549001"
       cy="520.24329"
       r="181.57535"
       fx="12.549001"
       fy="520.24329"
       id="radialGradient3106-3"
       xlink:href="#linearGradient3100-0"
       gradientUnits="userSpaceOnUse"
       gradientTransform="matrix(1.6076515,-0.20375619,0.07776893,0.57456114,-54.019428,227.77744)" />
    <linearGradient
       id="linearGradient3100-0">
      <stop
         id="stop3102-4"
         style="stop-color:#999999;stop-opacity:1"
         offset="0" />
      <stop
         id="stop3104-6"
         style="stop-color:#999999;stop-opacity:0"
         offset="1" />
    </linearGradient>
    <radialGradient
       cx="-19.972841"
       cy="492.08691"
       r="181.57535"
       fx="-19.972841"
       fy="492.08691"
       id="radialGradient3110-0"
       xlink:href="#linearGradient3112-3"
       gradientUnits="userSpaceOnUse"
       gradientTransform="matrix(1.9999922,-0.03095482,0.01471254,0.80820802,-1.7649176,104.06005)" />
    <linearGradient
       id="linearGradient3112-3">
      <stop
         id="stop3114-5"
         style="stop-color:#999999;stop-opacity:1"
         offset="0" />
      <stop
         id="stop3116-1"
         style="stop-color:#000000;stop-opacity:1"
         offset="1" />
    </linearGradient>
    <linearGradient
       x1="141.81728"
       y1="615.66003"
       x2="141.81729"
       y2="613.04553"
       id="linearGradient3185-3"
       xlink:href="#linearGradient3179-9"
       gradientUnits="userSpaceOnUse"
       gradientTransform="matrix(0.70671873,0,0,0.73946006,41.779557,159.96658)" />
    <linearGradient
       id="linearGradient3179-9">
      <stop
         id="stop3181-3"
         style="stop-color:#4d4d4d;stop-opacity:1"
         offset="0" />
      <stop
         id="stop3183-9"
         style="stop-color:#4d4d4d;stop-opacity:0"
         offset="1" />
    </linearGradient>
    <linearGradient
       x1="141.81728"
       y1="615.66003"
       x2="141.89651"
       y2="614.23395"
       id="linearGradient3189-2"
       xlink:href="#linearGradient3179-9"
       gradientUnits="userSpaceOnUse"
       gradientTransform="matrix(-0.70671873,0,0,-0.73946006,242.35671,1067.2733)" />
    <linearGradient
       x1="141.81728"
       y1="615.66003"
       x2="141.81729"
       y2="613.04553"
       id="linearGradient3209-2"
       xlink:href="#linearGradient3179-9"
       gradientUnits="userSpaceOnUse"
       gradientTransform="matrix(0.70671873,0,0,0.73946006,30.799181,159.63045)" />
    <linearGradient
       x1="141.81728"
       y1="615.66003"
       x2="141.89651"
       y2="614.23395"
       id="linearGradient3211-7"
       xlink:href="#linearGradient3179-9"
       gradientUnits="userSpaceOnUse"
       gradientTransform="matrix(-0.70671873,0,0,-0.73946006,231.37633,1066.9372)" />
    <linearGradient
       x1="141.81728"
       y1="615.66003"
       x2="141.81729"
       y2="613.04553"
       id="linearGradient3227-8"
       xlink:href="#linearGradient3179-9"
       gradientUnits="userSpaceOnUse"
       gradientTransform="matrix(0.70671873,0,0,0.73946006,20.154939,159.29432)" />
    <linearGradient
       x1="141.81728"
       y1="615.66003"
       x2="141.89651"
       y2="614.23395"
       id="linearGradient3229-7"
       xlink:href="#linearGradient3179-9"
       gradientUnits="userSpaceOnUse"
       gradientTransform="matrix(-0.70671873,0,0,-0.73946006,220.73209,1066.6011)" />
    <linearGradient
       x1="141.81728"
       y1="615.66003"
       x2="141.81729"
       y2="613.04553"
       id="linearGradient3245-3"
       xlink:href="#linearGradient3179-9"
       gradientUnits="userSpaceOnUse"
       gradientTransform="matrix(0.70671873,0,0,0.73946006,9.6227419,159.07023)" />
    <linearGradient
       x1="141.81728"
       y1="615.66003"
       x2="141.89651"
       y2="614.23395"
       id="linearGradient3247-0"
       xlink:href="#linearGradient3179-9"
       gradientUnits="userSpaceOnUse"
       gradientTransform="matrix(-0.70671873,0,0,-0.73946006,210.19989,1066.377)" />
  </defs>
  <metadata
     id="metadata7">
    <rdf:RDF>
      <cc:Work
         rdf:about="">
        <dc:format>image/svg+xml</dc:format>
        <dc:type
           rdf:resource="http://purl.org/dc/dcmitype/StillImage" />
        <dc:title></dc:title>
      </cc:Work>
    </rdf:RDF>
  </metadata>
  <g
     transform="translate(-37.428485,-39.664926)"
     id="layer1">
    <g
       transform="matrix(1.8127588,0,0,1.8127588,355.04324,-692.53151)"
       id="g4517">
      <g
         transform="matrix(0.94348833,0,0,0.89973129,167.81908,-374.43162)"
         id="g4432"
         style="opacity:0.43999999;fill:#000000;stroke:none;filter:url(#filter4513-3)">
        <g
           transform="translate(-162.24066,488.51467)"
           id="g4297"
           style="fill:#000000;stroke:none">
          <path
             d="m 137.53899,664.78113 c 0,9.62635 -54.909682,17.43006 -122.644214,17.43006 -67.734531,0 -122.644216,-7.80371 -122.644216,-17.43006 0,-2.07291 4.37212,-9.30755 9.044192,-11.1517 17.024564,-6.7199 60.4512,-6.27836 113.600024,-6.27836 55.602927,0 104.389564,0.0124 119.427694,7.22118 3.28106,1.57283 3.21652,8.48475 3.21652,10.20888 z"
             transform="matrix(1.0413437,0,0,1.2685459,-8.855468,-159.89945)"
             id="path4299"
             style="fill:#000000;fill-opacity:1;stroke:none" />
          <path
             d="m 137.53899,664.78113 a 122.64422,17.430058 0 1 1 -245.28843,0 122.64422,17.430058 0 1 1 245.28843,0 z"
             transform="matrix(1,0,0,1.2181818,-5.7043823,-137.43731)"
             id="path4301"
             style="fill:#000000;fill-opacity:1;stroke:none" />
          <path
             d="m 14.805711,607.26001 25.725853,2.14632 17.030522,52.49052 c 0.06614,3.93633 -3.040359,10.24089 -3.724271,9.89602 -28.667226,-12.57939 -68.168625,-21.79207 -98.025934,-2.23923 l 59.129544,-61.40715 z"
             id="path4303"
             style="fill:#000000;stroke:none" />
          <path
             d="m 137.53899,664.78113 a 122.64422,17.430058 0 1 1 -245.28843,0 122.64422,17.430058 0 1 1 245.28843,0 z"
             transform="matrix(1,0,0,1.2181818,-5.7043823,-137.43731)"
             id="path4305"
             style="fill:#000000;fill-opacity:1;stroke:none" />
          <path
             d="M -1.5859515,607.74323 35.140703,608.52 54.129746,671.68653 c -9.264447,9.86861 -118.057708,12.81642 -96.74457,-9.30989 l 1.324158,-0.78715 26.527204,-52.32596 z"
             id="path4307"
             style="fill:#000000;stroke:none" />
          <rect
             width="324.73578"
             height="194.41243"
             x="-120.43957"
             y="420.15433"
             transform="matrix(0.99975144,0.02229486,-0.06966525,0.99757043,0,0)"
             id="rect4309"
             style="opacity:0.43999999;fill:#000000;fill-opacity:1;stroke:none" />
          <path
             d="M -1.5859515,607.74323 35.140703,608.52 54.129746,671.68653 c -9.264447,9.86861 -118.057708,12.81642 -96.74457,-9.30989 l 1.324158,-0.78715 26.527204,-52.32596 z"
             id="path4311"
             style="fill:#000000;fill-opacity:1;stroke:none" />
          <path
             d="M 14.59375,611.6875 C 2.9675659,614.39057 -2.1044126,629.44147 3.0516487,639.64475 8.7602528,651.93762 15.805552,663.84447 25.125,673.75 c 5.215606,1.35324 10.510134,-0.70895 15.721925,-1.14838 3.063484,-0.64874 6.048639,-1.66297 8.934325,-2.78912 -5.79684,-19.25884 -11.582838,-38.52099 -17.375,-57.78125 -5.939313,-0.0256 -11.871518,-0.50749 -17.8125,-0.34375 z"
             id="path4313"
             style="fill:#000000;fill-opacity:1;stroke:none" />
          <path
             d="m -150.61232,415.78008 324.58084,7.23829 7.84787,2.69075 -16.08876,192.42805 c -2.27702,0.31308 -4.55556,0.62616 -7.03894,0.93924 l -314.05835,-8.69154 -8.55367,-0.22349 z"
             id="path4315"
             style="fill:#000000;fill-opacity:1;stroke:none" />
          <path
             d="m -150.61232,415.78008 324.58084,7.23829 7.84787,2.69075 -16.00954,192.34882 -6.95588,1.01845 -314.22063,-8.69152 -8.87059,0.0142 z"
             id="path4317"
             style="fill:#000000;fill-opacity:1;stroke:none" />
          <path
             d="m -137.91776,426.00415 300.51364,7.53296 -13.60532,173.46352 -299.84137,-7.08479 z"
             id="path4319"
             style="fill:#000000;fill-opacity:1;stroke:none" />
          <path
             d="m -145.92992,599.93356 c 97.372081,2.38729 198.105498,5.78301 295.47756,8.1703 4.05581,-56.18666 8.1116,-112.37331 12.16742,-168.55998 -97.372081,-2.3873 -194.744157,-4.77461 -292.11625,-7.16191 -4.05578,56.18665 -11.47293,111.36492 -15.52873,167.55159 z"
             id="path4321"
             style="fill:#000000;fill-opacity:1;stroke:none" />
          <path
             d="m -145.92992,599.93356 c 97.372081,2.38729 198.105498,5.78301 295.47756,8.1703 4.05581,-56.18666 8.1116,-112.37331 12.16742,-168.55998 -97.372081,-2.3873 -194.744157,-4.77461 -292.11625,-7.16191 -4.05578,56.18665 -11.47293,111.36492 -15.52873,167.55159 z"
             id="path4323"
             style="fill:#000000;fill-opacity:1;stroke:none" />
          <path
             d="m -146.04197,599.82151 c 97.372086,2.38729 198.217548,5.89506 295.58961,8.28235 4.05581,-56.18666 8.55978,-114.6142 12.6156,-170.80087 -97.372082,-2.3873 -199.225944,-4.77461 -296.59804,-7.16191 -4.05578,56.18665 -7.55137,113.49376 -11.60717,169.68043 z"
             id="path4325"
             style="fill:#000000;fill-opacity:1;stroke:none" />
          <path
             d="m 181.90641,426.14777 -8.55657,-3.1691 -14.6571,196.16737 c 4.24588,0.21808 6.84525,-0.13909 7.28895,-1.18841 z"
             id="path4327"
             style="fill:#000000;stroke:none" />
          <path
             d="m 137.63216,611.14174 9.22816,0.32191 -0.53652,4.61408 -9.01356,-0.32191 z"
             id="path4329"
             style="fill:#000000;stroke:none" />
          <path
             d="m 137.51785,615.47398 c 2.8416,0.11554 5.6832,0.23109 8.5248,0.34662 0.15459,-1.37109 0.30918,-2.74216 0.46378,-4.11325 -2.88576,-0.11553 -5.77154,-0.23107 -8.6573,-0.34662 -0.11042,1.37109 -0.22085,2.74216 -0.33128,4.11325 z"
             id="path4331"
             style="fill:#000000;stroke:none" />
          <path
             d="m 137.68582,615.37957 c 2.7708,0.10795 5.5416,0.2159 8.31239,0.32386 0.15075,-1.28103 0.30149,-2.56205 0.45223,-3.84308 -2.81385,-0.10796 -5.62773,-0.21591 -8.4416,-0.32386 -0.10766,1.28104 -0.21534,2.56206 -0.32302,3.84308 z"
             id="path4333"
             style="fill:#000000;stroke:none" />
          <path
             d="m 137.68582,615.37957 c 2.7708,0.10795 5.5416,0.2159 8.31239,0.32386 0.15075,-1.28103 0.30149,-2.56205 0.45223,-3.84308 -2.81385,-0.10796 -5.62773,-0.21591 -8.4416,-0.32386 -0.10766,1.28104 -0.21534,2.56206 -0.32302,3.84308 z"
             id="path4335"
             style="fill:#000000;fill-opacity:1;stroke:none" />
          <path
             d="m 146.45044,611.86035 c -2.7708,-0.10796 -5.54159,-0.2159 -8.31239,-0.32386 -0.15075,1.28104 -0.30148,2.56206 -0.45223,3.84308 2.81386,0.10795 5.62773,0.21591 8.4416,0.32386 0.10767,-1.28102 0.21534,-2.56205 0.32302,-3.84308 z"
             id="path4337"
             style="fill:#000000;fill-opacity:1;stroke:none" />
          <path
             d="m 145.06561,613.44165 a 2.376826,1.9014608 0 1 1 -4.75365,0 2.376826,1.9014608 0 1 1 4.75365,0 z"
             transform="matrix(0.67719025,0,0,0.67719025,45.546167,198.08098)"
             id="path4339"
             style="fill:#000000;fill-opacity:1;stroke:none" />
          <rect
             width="0.69669408"
             height="2.0949409"
             ry="0.27790031"
             x="208.20508"
             y="600.71246"
             transform="matrix(0.99730101,0.07342137,-0.10924031,0.99401537,0,0)"
             id="rect4341"
             style="fill:#000000;fill-opacity:1;stroke:none" />
          <path
             d="m 126.65178,610.80561 9.22816,0.32191 -0.53652,4.61408 -9.01356,-0.32191 z"
             id="path4343"
             style="fill:#000000;stroke:none" />
          <path
             d="m 126.53747,615.13785 c 2.8416,0.11554 5.6832,0.23109 8.5248,0.34662 0.15459,-1.37109 0.30918,-2.74216 0.46378,-4.11325 -2.88576,-0.11553 -5.77154,-0.23107 -8.6573,-0.34662 -0.11042,1.37109 -0.22085,2.74216 -0.33128,4.11325 z"
             id="path4345"
             style="fill:#000000;stroke:none" />
          <path
             d="m 126.70544,615.04344 c 2.7708,0.10795 5.5416,0.2159 8.31239,0.32386 0.15075,-1.28103 0.30149,-2.56205 0.45223,-3.84308 -2.81385,-0.10796 -5.62773,-0.21591 -8.4416,-0.32386 -0.10766,1.28104 -0.21534,2.56206 -0.32302,3.84308 z"
             id="path4347"
             style="fill:#000000;stroke:none" />
          <path
             d="m 126.70544,615.04344 c 2.7708,0.10795 5.5416,0.2159 8.31239,0.32386 0.15075,-1.28103 0.30149,-2.56205 0.45223,-3.84308 -2.81385,-0.10796 -5.62773,-0.21591 -8.4416,-0.32386 -0.10766,1.28104 -0.21534,2.56206 -0.32302,3.84308 z"
             id="path4349"
             style="fill:#000000;fill-opacity:1;stroke:none" />
          <path
             d="m 135.47006,611.52422 c -2.7708,-0.10796 -5.54159,-0.2159 -8.31239,-0.32386 -0.15075,1.28104 -0.30148,2.56206 -0.45223,3.84308 2.81386,0.10795 5.62773,0.21591 8.4416,0.32386 0.10767,-1.28102 0.21534,-2.56205 0.32302,-3.84308 z"
             id="path4351"
             style="fill:#000000;fill-opacity:1;stroke:none" />
          <path
             d="m 145.06561,613.44165 a 2.376826,1.9014608 0 1 1 -4.75365,0 2.376826,1.9014608 0 1 1 4.75365,0 z"
             transform="matrix(0.67719025,0,0,0.67719025,34.481758,197.68883)"
             id="path4353"
             style="fill:#000000;fill-opacity:1;stroke:none" />
          <path
             d="m 116.00754,610.46948 9.22816,0.32191 -0.53652,4.61408 -9.01356,-0.32191 z"
             id="path4355"
             style="fill:#000000;stroke:none" />
          <path
             d="m 115.89323,614.80172 c 2.8416,0.11554 5.6832,0.23109 8.5248,0.34662 0.15459,-1.37109 0.30918,-2.74216 0.46378,-4.11325 -2.88576,-0.11553 -5.77154,-0.23107 -8.6573,-0.34662 -0.11042,1.37109 -0.22085,2.74216 -0.33128,4.11325 z"
             id="path4357"
             style="fill:#000000;stroke:none" />
          <path
             d="m 116.0612,614.70731 c 2.7708,0.10795 5.5416,0.2159 8.31239,0.32386 0.15075,-1.28103 0.30149,-2.56205 0.45223,-3.84308 -2.81385,-0.10796 -5.62773,-0.21591 -8.4416,-0.32386 -0.10766,1.28104 -0.21534,2.56206 -0.32302,3.84308 z"
             id="path4359"
             style="fill:#000000;stroke:none" />
          <path
             d="m 116.0612,614.70731 c 2.7708,0.10795 5.5416,0.2159 8.31239,0.32386 0.15075,-1.28103 0.30149,-2.56205 0.45223,-3.84308 -2.81385,-0.10796 -5.62773,-0.21591 -8.4416,-0.32386 -0.10766,1.28104 -0.21534,2.56206 -0.32302,3.84308 z"
             id="path4361"
             style="fill:#000000;fill-opacity:1;stroke:none" />
          <path
             d="m 124.82582,611.18809 c -2.7708,-0.10796 -5.54159,-0.2159 -8.31239,-0.32386 -0.15075,1.28104 -0.30148,2.56206 -0.45223,3.84308 2.81386,0.10795 5.62773,0.21591 8.4416,0.32386 0.10767,-1.28102 0.21534,-2.56205 0.32302,-3.84308 z"
             id="path4363"
             style="fill:#000000;fill-opacity:1;stroke:none" />
          <path
             d="m 145.06561,613.44165 a 2.376826,1.9014608 0 1 1 -4.75365,0 2.376826,1.9014608 0 1 1 4.75365,0 z"
             transform="matrix(0.67719025,0,0,0.67719025,23.921549,197.40872)"
             id="path4365"
             style="fill:#000000;fill-opacity:1;stroke:none" />
          <path
             d="m 105.47534,610.24539 9.22816,0.32191 -0.53652,4.61408 -9.01356,-0.32191 z"
             id="path4367"
             style="fill:#000000;stroke:none" />
          <path
             d="m 105.36103,614.57763 c 2.8416,0.11554 5.6832,0.23109 8.5248,0.34662 0.15459,-1.37109 0.30918,-2.74216 0.46378,-4.11325 -2.88576,-0.11553 -5.77154,-0.23107 -8.6573,-0.34662 -0.11042,1.37109 -0.22085,2.74216 -0.33128,4.11325 z"
             id="path4369"
             style="fill:#000000;stroke:none" />
          <path
             d="m 105.529,614.48322 c 2.7708,0.10795 5.5416,0.2159 8.31239,0.32386 0.15075,-1.28103 0.30149,-2.56205 0.45223,-3.84308 -2.81385,-0.10796 -5.62773,-0.21591 -8.4416,-0.32386 -0.10766,1.28104 -0.21534,2.56206 -0.32302,3.84308 z"
             id="path4371"
             style="fill:#000000;stroke:none" />
          <path
             d="m 105.529,614.48322 c 2.7708,0.10795 5.5416,0.2159 8.31239,0.32386 0.15075,-1.28103 0.30149,-2.56205 0.45223,-3.84308 -2.81385,-0.10796 -5.62773,-0.21591 -8.4416,-0.32386 -0.10766,1.28104 -0.21534,2.56206 -0.32302,3.84308 z"
             id="path4373"
             style="fill:#000000;fill-opacity:1;stroke:none" />
          <path
             d="m 114.29362,610.964 c -2.7708,-0.10796 -5.54159,-0.2159 -8.31239,-0.32386 -0.15075,1.28104 -0.30148,2.56206 -0.45223,3.84308 2.81386,0.10795 5.62773,0.21591 8.4416,0.32386 0.10767,-1.28102 0.21534,-2.56205 0.32302,-3.84308 z"
             id="path4375"
             style="fill:#000000;fill-opacity:1;stroke:none" />
          <path
             d="m 145.06561,613.44165 a 2.376826,1.9014608 0 1 1 -4.75365,0 2.376826,1.9014608 0 1 1 4.75365,0 z"
             transform="matrix(0.67719025,0,0,0.67719025,13.389352,197.18463)"
             id="path4377"
             style="fill:#000000;fill-opacity:1;stroke:none" />
          <path
             d="m 131.96489,612.5977 -0.50424,1.24973 -0.85327,-0.49988 -0.40077,0.31242 -0.3663,0 0.43094,-1.24972 0.43956,0 0.0388,0.31242 1.27127,-0.49989 0.19822,0.0625 z"
             id="path4379"
             style="fill:#000000;stroke:none" />
          <path
             d="m 119.15821,621.40405 a 0.83188909,0.59420651 0 1 1 -1.66378,0 0.83188909,0.59420651 0 1 1 1.66378,0 z"
             transform="translate(2.2975984,-8.5565734)"
             id="path4381"
             style="fill:#000000;fill-opacity:1;stroke:none" />
          <rect
             width="1.7430058"
             height="1.6333174"
             ry="0.30152956"
             x="367.00391"
             y="663.79602"
             transform="matrix(1,0,-0.38805701,0.92163537,0,0)"
             id="rect4383"
             style="fill:#000000;fill-opacity:1;stroke:none" />
          <path
             d="m -159.03125,604.96875 c 87.322925,2.69727 174.729109,5.48306 262,8.125 0.61119,-2.70402 -3.793895,-1.17302 -5.21875,-1.375 -84.520948,-2.8768 -169.198111,-5.45721 -253.78125,-8.125 4.33467,-60.21526 8.6207,-120.43518 12.875,-180.65625 102.893809,2.40684 205.790786,4.74568 308.6875,7.03125 -4.35234,60.94397 -8.6044,121.89592 -12.90625,182.84375 -1.4718,-1.16293 -4.58552,-0.32355 -1.9375,1.09375 1.72635,0.64112 3.57008,0.0281 5.1875,-0.375 1.11952,-3.12666 -0.0354,-6.73455 0.81582,-9.99088 3.95723,-58.50304 7.91445,-117.00608 11.87168,-175.50912 -105.229167,-1.90625 -210.458333,-3.8125 -315.6875,-5.71875 -3.96875,60.88542 -7.9375,121.77083 -11.90625,182.65625 z"
             id="path4385"
             style="fill:#000000;stroke:none;filter:url(#filter4037-8)" />
          <path
             d="m -113.9375,677.5625 c -1.02745,1.62969 -2.48101,5.03543 0.5625,5.34375 8.12604,6.25485 16.929442,12.54054 27.638604,12.502 26.211818,3.01518 52.704522,1.96002 78.923896,4.90425 36.857394,1.8675 73.775911,-1.62045 110.27705,-6.44031 10.22436,-2.21903 19.62987,-7.29918 28.8792,-11.65344 -0.48697,-3.3283 -4.85739,-1.21961 -6.78258,-0.61987 -20.45143,5.61755 -40.962905,12.35959 -62.110023,15.22337 -45.162718,0.24953 -90.334364,-2.07458 -135.304611,-6.12004 -13.424386,-1.68344 -27.868597,-3.10877 -39.302786,-10.73346 -0.95455,-0.54511 -2.19732,-2.56797 -2.78125,-2.40625 z"
             id="path4387"
             style="fill:#000000;stroke:none;filter:url(#filter4240-1)" />
          <path
             d="m -159.03125,604.96875 c 87.322925,2.69727 174.729109,5.48306 262,8.125 0.61119,-2.70402 -3.793895,-1.17302 -5.21875,-1.375 -84.520948,-2.8768 -169.198111,-5.45721 -253.78125,-8.125 4.33467,-60.21526 8.6207,-120.43518 12.875,-180.65625 102.893809,2.40684 205.790786,4.74568 308.6875,7.03125 -4.35234,60.94397 -8.6044,121.89592 -12.90625,182.84375 -1.4718,-1.16293 -4.58552,-0.32355 -1.9375,1.09375 1.72635,0.64112 3.57008,0.0281 5.1875,-0.375 1.11952,-3.12666 -0.0354,-6.73455 0.81582,-9.99088 3.95723,-58.50304 7.91445,-117.00608 11.87168,-175.50912 -105.229167,-1.90625 -210.458333,-3.8125 -315.6875,-5.71875 -3.96875,60.88542 -7.9375,121.77083 -11.90625,182.65625 z"
             id="path4389"
             style="fill:#000000;stroke:none;filter:url(#filter4037-8)" />
          <path
             d="m -159.03125,604.96875 c 87.322925,2.69727 174.729109,5.48306 262,8.125 0.61119,-2.70402 -3.793895,-1.17302 -5.21875,-1.375 -84.520948,-2.8768 -169.198111,-5.45721 -253.78125,-8.125 4.33467,-60.21526 8.6207,-120.43518 12.875,-180.65625 102.893809,2.40684 205.790786,4.74568 308.6875,7.03125 -4.35234,60.94397 -8.6044,121.89592 -12.90625,182.84375 -1.4718,-1.16293 -4.58552,-0.32355 -1.9375,1.09375 1.72635,0.64112 3.57008,0.0281 5.1875,-0.375 1.11952,-3.12666 -0.0354,-6.73455 0.81582,-9.99088 3.95723,-58.50304 7.91445,-117.00608 11.87168,-175.50912 -105.229167,-1.90625 -210.458333,-3.8125 -315.6875,-5.71875 -3.96875,60.88542 -7.9375,121.77083 -11.90625,182.65625 z"
             id="path4391"
             style="fill:#000000;stroke:none;filter:url(#filter4037-8)" />
        </g>
      </g>
      <g
         id="g4248">
        <path
           d="m 137.53899,664.78113 c 0,9.62635 -54.909682,17.43006 -122.644214,17.43006 -67.734531,0 -122.644216,-7.80371 -122.644216,-17.43006 0,-2.07291 4.37212,-9.30755 9.044192,-11.1517 17.024564,-6.7199 60.4512,-6.27836 113.600024,-6.27836 55.602927,0 104.389564,0.0124 119.427694,7.22118 3.28106,1.57283 3.21652,8.48475 3.21652,10.20888 z"
           transform="matrix(1.0413437,0,0,1.2685459,-8.855468,-159.89945)"
           id="path3128"
           style="fill:#4d4d4d;fill-opacity:1;stroke:none" />
        <path
           d="m 137.53899,664.78113 a 122.64422,17.430058 0 1 1 -245.28843,0 122.64422,17.430058 0 1 1 245.28843,0 z"
           transform="matrix(1,0,0,1.2181818,-5.7043823,-137.43731)"
           id="path3126"
           style="fill:#1a1a1a;fill-opacity:1;stroke:none" />
        <path
           d="m 14.805711,607.26001 25.725853,2.14632 17.030522,52.49052 c 0.06614,3.93633 -3.040359,10.24089 -3.724271,9.89602 -28.667226,-12.57939 -68.168625,-21.79207 -98.025934,-2.23923 l 59.129544,-61.40715 z"
           id="path3124"
           style="fill:#808080;stroke:none" />
        <path
           d="m 137.53899,664.78113 a 122.64422,17.430058 0 1 1 -245.28843,0 122.64422,17.430058 0 1 1 245.28843,0 z"
           transform="matrix(1,0,0,1.2181818,-5.7043823,-137.43731)"
           id="path3133"
           style="fill:url(#radialGradient3141-2);fill-opacity:1;stroke:none" />
        <path
           d="M -1.5859515,607.74323 35.140703,608.52 54.129746,671.68653 c -9.264447,9.86861 -118.057708,12.81642 -96.74457,-9.30989 l 1.324158,-0.78715 26.527204,-52.32596 z"
           id="path3122"
           style="fill:#1a1a1a;stroke:none" />
        <rect
           width="324.73578"
           height="194.41243"
           x="-120.43957"
           y="420.15433"
           transform="matrix(0.99975144,0.02229486,-0.06966525,0.99757043,0,0)"
           id="rect3080"
           style="opacity:0.43999999;fill:#552200;fill-opacity:1;stroke:none" />
        <path
           d="M -1.5859515,607.74323 35.140703,608.52 54.129746,671.68653 c -9.264447,9.86861 -118.057708,12.81642 -96.74457,-9.30989 l 1.324158,-0.78715 26.527204,-52.32596 z"
           id="path3153"
           style="fill:url(#linearGradient3161-6);fill-opacity:1;stroke:none" />
        <path
           d="M 14.59375,611.6875 C 2.9675659,614.39057 -2.1044126,629.44147 3.0516487,639.64475 8.7602528,651.93762 15.805552,663.84447 25.125,673.75 c 5.215606,1.35324 10.510134,-0.70895 15.721925,-1.14838 3.063484,-0.64874 6.048639,-1.66297 8.934325,-2.78912 -5.79684,-19.25884 -11.582838,-38.52099 -17.375,-57.78125 -5.939313,-0.0256 -11.871518,-0.50749 -17.8125,-0.34375 z"
           id="path4083"
           style="fill:url(#linearGradient4214-8);fill-opacity:1;stroke:none" />
        <path
           d="m -150.61232,415.78008 324.58084,7.23829 7.84787,2.69075 -16.08876,192.42805 c -2.27702,0.31308 -4.55556,0.62616 -7.03894,0.93924 l -314.05835,-8.69154 -8.55367,-0.22349 z"
           id="rect3082"
           style="fill:#000000;fill-opacity:1;stroke:none" />
        <path
           d="m -150.61232,415.78008 324.58084,7.23829 7.84787,2.69075 -16.00954,192.34882 -6.95588,1.01845 -314.22063,-8.69152 -8.87059,0.0142 z"
           id="path3143"
           style="fill:url(#linearGradient3151-8);fill-opacity:1;stroke:none" />
        <path
           d="m -137.91776,426.00415 300.51364,7.53296 -13.60532,173.46352 -299.84137,-7.08479 z"
           id="rect3087"
           style="fill:#000000;fill-opacity:1;stroke:none" />
        <path
           d="m -145.92992,599.93356 c 97.372081,2.38729 198.105498,5.78301 295.47756,8.1703 4.05581,-56.18666 8.1116,-112.37331 12.16742,-168.55998 -97.372081,-2.3873 -194.744157,-4.77461 -292.11625,-7.16191 -4.05578,56.18665 -11.47293,111.36492 -15.52873,167.55159 z"
           id="path3090"
           style="fill:#1a1a1a;fill-opacity:1;stroke:none" />
        <path
           d="m -145.92992,599.93356 c 97.372081,2.38729 198.105498,5.78301 295.47756,8.1703 4.05581,-56.18666 8.1116,-112.37331 12.16742,-168.55998 -97.372081,-2.3873 -194.744157,-4.77461 -292.11625,-7.16191 -4.05578,56.18665 -11.47293,111.36492 -15.52873,167.55159 z"
           id="path3098"
           style="fill:url(#radialGradient3106-3);fill-opacity:1;stroke:none" />
        <path
           d="m -146.04197,599.82151 c 97.372086,2.38729 198.217548,5.89506 295.58961,8.28235 4.05581,-56.18666 8.55978,-114.6142 12.6156,-170.80087 -97.372082,-2.3873 -199.225944,-4.77461 -296.59804,-7.16191 -4.05578,56.18665 -7.55137,113.49376 -11.60717,169.68043 z"
           id="path3108"
           style="fill:url(#radialGradient3110-0);fill-opacity:1;stroke:none" />
        <path
           d="m 181.90641,426.14777 -8.55657,-3.1691 -14.6571,196.16737 c 4.24588,0.21808 6.84525,-0.13909 7.28895,-1.18841 z"
           id="path3131"
           style="fill:#1a1a1a;stroke:none" />
        <path
           d="m 137.63216,611.14174 9.22816,0.32191 -0.53652,4.61408 -9.01356,-0.32191 z"
           id="path3163"
           style="fill:#333333;stroke:none" />
        <path
           d="m 137.51785,615.47398 c 2.8416,0.11554 5.6832,0.23109 8.5248,0.34662 0.15459,-1.37109 0.30918,-2.74216 0.46378,-4.11325 -2.88576,-0.11553 -5.77154,-0.23107 -8.6573,-0.34662 -0.11042,1.37109 -0.22085,2.74216 -0.33128,4.11325 z"
           id="path3165"
           style="fill:#000000;stroke:none" />
        <path
           d="m 137.68582,615.37957 c 2.7708,0.10795 5.5416,0.2159 8.31239,0.32386 0.15075,-1.28103 0.30149,-2.56205 0.45223,-3.84308 -2.81385,-0.10796 -5.62773,-0.21591 -8.4416,-0.32386 -0.10766,1.28104 -0.21534,2.56206 -0.32302,3.84308 z"
           id="path3175"
           style="fill:#999999;stroke:none" />
        <path
           d="m 137.68582,615.37957 c 2.7708,0.10795 5.5416,0.2159 8.31239,0.32386 0.15075,-1.28103 0.30149,-2.56205 0.45223,-3.84308 -2.81385,-0.10796 -5.62773,-0.21591 -8.4416,-0.32386 -0.10766,1.28104 -0.21534,2.56206 -0.32302,3.84308 z"
           id="path3177"
           style="fill:url(#linearGradient3185-3);fill-opacity:1;stroke:none" />
        <path
           d="m 146.45044,611.86035 c -2.7708,-0.10796 -5.54159,-0.2159 -8.31239,-0.32386 -0.15075,1.28104 -0.30148,2.56206 -0.45223,3.84308 2.81386,0.10795 5.62773,0.21591 8.4416,0.32386 0.10767,-1.28102 0.21534,-2.56205 0.32302,-3.84308 z"
           id="path3187"
           style="fill:url(#linearGradient3189-2);fill-opacity:1;stroke:none" />
        <path
           d="m 145.06561,613.44165 a 2.376826,1.9014608 0 1 1 -4.75365,0 2.376826,1.9014608 0 1 1 4.75365,0 z"
           transform="matrix(0.67719025,0,0,0.67719025,45.546167,198.08098)"
           id="path3191"
           style="fill:#4d4d4d;fill-opacity:1;stroke:none" />
        <rect
           width="0.69669408"
           height="2.0949409"
           ry="0.27790031"
           x="208.20508"
           y="600.71246"
           transform="matrix(0.99730101,0.07342137,-0.10924031,0.99401537,0,0)"
           id="rect3193"
           style="fill:#333333;fill-opacity:1;stroke:none" />
        <path
           d="m 126.65178,610.80561 9.22816,0.32191 -0.53652,4.61408 -9.01356,-0.32191 z"
           id="path3195"
           style="fill:#333333;stroke:none" />
        <path
           d="m 126.53747,615.13785 c 2.8416,0.11554 5.6832,0.23109 8.5248,0.34662 0.15459,-1.37109 0.30918,-2.74216 0.46378,-4.11325 -2.88576,-0.11553 -5.77154,-0.23107 -8.6573,-0.34662 -0.11042,1.37109 -0.22085,2.74216 -0.33128,4.11325 z"
           id="path3197"
           style="fill:#000000;stroke:none" />
        <path
           d="m 126.70544,615.04344 c 2.7708,0.10795 5.5416,0.2159 8.31239,0.32386 0.15075,-1.28103 0.30149,-2.56205 0.45223,-3.84308 -2.81385,-0.10796 -5.62773,-0.21591 -8.4416,-0.32386 -0.10766,1.28104 -0.21534,2.56206 -0.32302,3.84308 z"
           id="path3199"
           style="fill:#999999;stroke:none" />
        <path
           d="m 126.70544,615.04344 c 2.7708,0.10795 5.5416,0.2159 8.31239,0.32386 0.15075,-1.28103 0.30149,-2.56205 0.45223,-3.84308 -2.81385,-0.10796 -5.62773,-0.21591 -8.4416,-0.32386 -0.10766,1.28104 -0.21534,2.56206 -0.32302,3.84308 z"
           id="path3201"
           style="fill:url(#linearGradient3209-2);fill-opacity:1;stroke:none" />
        <path
           d="m 135.47006,611.52422 c -2.7708,-0.10796 -5.54159,-0.2159 -8.31239,-0.32386 -0.15075,1.28104 -0.30148,2.56206 -0.45223,3.84308 2.81386,0.10795 5.62773,0.21591 8.4416,0.32386 0.10767,-1.28102 0.21534,-2.56205 0.32302,-3.84308 z"
           id="path3203"
           style="fill:url(#linearGradient3211-7);fill-opacity:1;stroke:none" />
        <path
           d="m 145.06561,613.44165 a 2.376826,1.9014608 0 1 1 -4.75365,0 2.376826,1.9014608 0 1 1 4.75365,0 z"
           transform="matrix(0.67719025,0,0,0.67719025,34.481758,197.68883)"
           id="path3205"
           style="fill:#4d4d4d;fill-opacity:1;stroke:none" />
        <path
           d="m 116.00754,610.46948 9.22816,0.32191 -0.53652,4.61408 -9.01356,-0.32191 z"
           id="path3213"
           style="fill:#333333;stroke:none" />
        <path
           d="m 115.89323,614.80172 c 2.8416,0.11554 5.6832,0.23109 8.5248,0.34662 0.15459,-1.37109 0.30918,-2.74216 0.46378,-4.11325 -2.88576,-0.11553 -5.77154,-0.23107 -8.6573,-0.34662 -0.11042,1.37109 -0.22085,2.74216 -0.33128,4.11325 z"
           id="path3215"
           style="fill:#000000;stroke:none" />
        <path
           d="m 116.0612,614.70731 c 2.7708,0.10795 5.5416,0.2159 8.31239,0.32386 0.15075,-1.28103 0.30149,-2.56205 0.45223,-3.84308 -2.81385,-0.10796 -5.62773,-0.21591 -8.4416,-0.32386 -0.10766,1.28104 -0.21534,2.56206 -0.32302,3.84308 z"
           id="path3217"
           style="fill:#999999;stroke:none" />
        <path
           d="m 116.0612,614.70731 c 2.7708,0.10795 5.5416,0.2159 8.31239,0.32386 0.15075,-1.28103 0.30149,-2.56205 0.45223,-3.84308 -2.81385,-0.10796 -5.62773,-0.21591 -8.4416,-0.32386 -0.10766,1.28104 -0.21534,2.56206 -0.32302,3.84308 z"
           id="path3219"
           style="fill:url(#linearGradient3227-8);fill-opacity:1;stroke:none" />
        <path
           d="m 124.82582,611.18809 c -2.7708,-0.10796 -5.54159,-0.2159 -8.31239,-0.32386 -0.15075,1.28104 -0.30148,2.56206 -0.45223,3.84308 2.81386,0.10795 5.62773,0.21591 8.4416,0.32386 0.10767,-1.28102 0.21534,-2.56205 0.32302,-3.84308 z"
           id="path3221"
           style="fill:url(#linearGradient3229-7);fill-opacity:1;stroke:none" />
        <path
           d="m 145.06561,613.44165 a 2.376826,1.9014608 0 1 1 -4.75365,0 2.376826,1.9014608 0 1 1 4.75365,0 z"
           transform="matrix(0.67719025,0,0,0.67719025,23.921549,197.40872)"
           id="path3223"
           style="fill:#4d4d4d;fill-opacity:1;stroke:none" />
        <path
           d="m 105.47534,610.24539 9.22816,0.32191 -0.53652,4.61408 -9.01356,-0.32191 z"
           id="path3231"
           style="fill:#333333;stroke:none" />
        <path
           d="m 105.36103,614.57763 c 2.8416,0.11554 5.6832,0.23109 8.5248,0.34662 0.15459,-1.37109 0.30918,-2.74216 0.46378,-4.11325 -2.88576,-0.11553 -5.77154,-0.23107 -8.6573,-0.34662 -0.11042,1.37109 -0.22085,2.74216 -0.33128,4.11325 z"
           id="path3233"
           style="fill:#000000;stroke:none" />
        <path
           d="m 105.529,614.48322 c 2.7708,0.10795 5.5416,0.2159 8.31239,0.32386 0.15075,-1.28103 0.30149,-2.56205 0.45223,-3.84308 -2.81385,-0.10796 -5.62773,-0.21591 -8.4416,-0.32386 -0.10766,1.28104 -0.21534,2.56206 -0.32302,3.84308 z"
           id="path3235"
           style="fill:#999999;stroke:none" />
        <path
           d="m 105.529,614.48322 c 2.7708,0.10795 5.5416,0.2159 8.31239,0.32386 0.15075,-1.28103 0.30149,-2.56205 0.45223,-3.84308 -2.81385,-0.10796 -5.62773,-0.21591 -8.4416,-0.32386 -0.10766,1.28104 -0.21534,2.56206 -0.32302,3.84308 z"
           id="path3237"
           style="fill:url(#linearGradient3245-3);fill-opacity:1;stroke:none" />
        <path
           d="m 114.29362,610.964 c -2.7708,-0.10796 -5.54159,-0.2159 -8.31239,-0.32386 -0.15075,1.28104 -0.30148,2.56206 -0.45223,3.84308 2.81386,0.10795 5.62773,0.21591 8.4416,0.32386 0.10767,-1.28102 0.21534,-2.56205 0.32302,-3.84308 z"
           id="path3239"
           style="fill:url(#linearGradient3247-0);fill-opacity:1;stroke:none" />
        <path
           d="m 145.06561,613.44165 a 2.376826,1.9014608 0 1 1 -4.75365,0 2.376826,1.9014608 0 1 1 4.75365,0 z"
           transform="matrix(0.67719025,0,0,0.67719025,13.389352,197.18463)"
           id="path3241"
           style="fill:#4d4d4d;fill-opacity:1;stroke:none" />
        <path
           d="m 131.96489,612.5977 -0.50424,1.24973 -0.85327,-0.49988 -0.40077,0.31242 -0.3663,0 0.43094,-1.24972 0.43956,0 0.0388,0.31242 1.27127,-0.49989 0.19822,0.0625 z"
           id="path3249"
           style="fill:#333333;stroke:none" />
        <path
           d="m 119.15821,621.40405 a 0.83188909,0.59420651 0 1 1 -1.66378,0 0.83188909,0.59420651 0 1 1 1.66378,0 z"
           transform="translate(2.2975984,-8.5565734)"
           id="path3251"
           style="fill:#333333;fill-opacity:1;stroke:none" />
        <rect
           width="1.7430058"
           height="1.6333174"
           ry="0.30152956"
           x="367.00391"
           y="663.79602"
           transform="matrix(1,0,-0.38805701,0.92163537,0,0)"
           id="rect3253"
           style="fill:#333333;fill-opacity:1;stroke:none" />
        <path
           d="m -159.03125,604.96875 c 87.322925,2.69727 174.729109,5.48306 262,8.125 0.61119,-2.70402 -3.793895,-1.17302 -5.21875,-1.375 -84.520948,-2.8768 -169.198111,-5.45721 -253.78125,-8.125 4.33467,-60.21526 8.6207,-120.43518 12.875,-180.65625 102.893809,2.40684 205.790786,4.74568 308.6875,7.03125 -4.35234,60.94397 -8.6044,121.89592 -12.90625,182.84375 -1.4718,-1.16293 -4.58552,-0.32355 -1.9375,1.09375 1.72635,0.64112 3.57008,0.0281 5.1875,-0.375 1.11952,-3.12666 -0.0354,-6.73455 0.81582,-9.99088 3.95723,-58.50304 7.91445,-117.00608 11.87168,-175.50912 -105.229167,-1.90625 -210.458333,-3.8125 -315.6875,-5.71875 -3.96875,60.88542 -7.9375,121.77083 -11.90625,182.65625 z"
           id="path3255"
           style="fill:#b3b3b3;stroke:none;filter:url(#filter4037-8)" />
        <path
           d="m -113.9375,677.5625 c -1.02745,1.62969 -2.48101,5.03543 0.5625,5.34375 8.12604,6.25485 16.929442,12.54054 27.638604,12.502 26.211818,3.01518 52.704522,1.96002 78.923896,4.90425 36.857394,1.8675 73.775911,-1.62045 110.27705,-6.44031 10.22436,-2.21903 19.62987,-7.29918 28.8792,-11.65344 -0.48697,-3.3283 -4.85739,-1.21961 -6.78258,-0.61987 -20.45143,5.61755 -40.962905,12.35959 -62.110023,15.22337 -45.162718,0.24953 -90.334364,-2.07458 -135.304611,-6.12004 -13.424386,-1.68344 -27.868597,-3.10877 -39.302786,-10.73346 -0.95455,-0.54511 -2.19732,-2.56797 -2.78125,-2.40625 z"
           id="path4216"
           style="fill:#cccccc;stroke:none;filter:url(#filter4240-1)" />
        <path
           d="m -159.03125,604.96875 c 87.322925,2.69727 174.729109,5.48306 262,8.125 0.61119,-2.70402 -3.793895,-1.17302 -5.21875,-1.375 -84.520948,-2.8768 -169.198111,-5.45721 -253.78125,-8.125 4.33467,-60.21526 8.6207,-120.43518 12.875,-180.65625 102.893809,2.40684 205.790786,4.74568 308.6875,7.03125 -4.35234,60.94397 -8.6044,121.89592 -12.90625,182.84375 -1.4718,-1.16293 -4.58552,-0.32355 -1.9375,1.09375 1.72635,0.64112 3.57008,0.0281 5.1875,-0.375 1.11952,-3.12666 -0.0354,-6.73455 0.81582,-9.99088 3.95723,-58.50304 7.91445,-117.00608 11.87168,-175.50912 -105.229167,-1.90625 -210.458333,-3.8125 -315.6875,-5.71875 -3.96875,60.88542 -7.9375,121.77083 -11.90625,182.65625 z"
           id="path4244"
           style="fill:#b3b3b3;stroke:none;filter:url(#filter4037-8)" />
        <path
           d="m -159.03125,604.96875 c 87.322925,2.69727 174.729109,5.48306 262,8.125 0.61119,-2.70402 -3.793895,-1.17302 -5.21875,-1.375 -84.520948,-2.8768 -169.198111,-5.45721 -253.78125,-8.125 4.33467,-60.21526 8.6207,-120.43518 12.875,-180.65625 102.893809,2.40684 205.790786,4.74568 308.6875,7.03125 -4.35234,60.94397 -8.6044,121.89592 -12.90625,182.84375 -1.4718,-1.16293 -4.58552,-0.32355 -1.9375,1.09375 1.72635,0.64112 3.57008,0.0281 5.1875,-0.375 1.11952,-3.12666 -0.0354,-6.73455 0.81582,-9.99088 3.95723,-58.50304 7.91445,-117.00608 11.87168,-175.50912 -105.229167,-1.90625 -210.458333,-3.8125 -315.6875,-5.71875 -3.96875,60.88542 -7.9375,121.77083 -11.90625,182.65625 z"
           id="path4246"
           style="fill:#b3b3b3;stroke:none;filter:url(#filter4037-8)" />
      </g>
    </g>
  </g>
</svg>
